<svg xmlns="http://www.w3.org/2000/svg" xmlns:xlink="http://www.w3.org/1999/xlink" width="2000" zoomAndPan="magnify" viewBox="0 0 1500 1499.999933" height="2000" preserveAspectRatio="xMidYMid meet" version="1.0"><defs><clipPath id="29e011a075"><path d="M 40 81 L 1460 81 L 1460 1442.503906 L 40 1442.503906 Z M 40 81 " clip-rule="nonzero"/></clipPath><clipPath id="228545cbc6"><path d="M 810.710938 101.519531 L 1417.011719 541.097656 C 1453.21875 567.347656 1468.410156 613.925781 1454.640625 656.472656 L 1223.371094 1371.144531 C 1209.605469 1413.683594 1169.992188 1442.5 1125.28125 1442.5 L 374.699219 1442.5 C 329.988281 1442.5 290.375 1413.683594 276.609375 1371.144531 L 45.339844 656.472656 C 31.570312 613.925781 46.761719 567.347656 82.96875 541.097656 L 689.269531 101.519531 C 725.492188 75.261719 774.488281 75.261719 810.710938 101.519531 Z M 810.710938 101.519531 " clip-rule="nonzero"/></clipPath><clipPath id="a5bf588cbb"><path d="M 0 0 L 1420 0 L 1420 1361.503906 L 0 1361.503906 Z M 0 0 " clip-rule="nonzero"/></clipPath><clipPath id="a81ce8b54d"><path d="M 770.710938 20.519531 L 1377.011719 460.097656 C 1413.21875 486.347656 1428.410156 532.925781 1414.640625 575.472656 L 1183.371094 1290.144531 C 1169.605469 1332.683594 1129.992188 1361.5 1085.28125 1361.5 L 334.699219 1361.5 C 289.988281 1361.5 250.375 1332.683594 236.609375 1290.144531 L 5.339844 575.472656 C -8.429688 532.925781 6.761719 486.347656 42.96875 460.097656 L 649.269531 20.519531 C 685.492188 -5.738281 734.488281 -5.738281 770.710938 20.519531 Z M 770.710938 20.519531 " clip-rule="nonzero"/></clipPath><clipPath id="1fafdd15ed"><rect x="0" width="1420" y="0" height="1362"/></clipPath><clipPath id="bde584af0f"><path d="M 320.136719 110.214844 L 413.722656 110.214844 L 413.722656 686.71875 L 320.136719 686.71875 Z M 320.136719 110.214844 " clip-rule="nonzero"/></clipPath><clipPath id="e44f2ddea1"><path d="M 413.722656 518.878906 C 413.722656 611.378906 392.773438 686.363281 366.929688 686.363281 C 341.085938 686.363281 320.136719 611.378906 320.136719 518.878906 C 320.136719 257.605469 366.929688 110.214844 366.929688 110.214844 C 366.929688 110.214844 413.722656 264.300781 413.722656 518.878906 Z M 413.722656 518.878906 " clip-rule="nonzero"/></clipPath><clipPath id="e0867484a2"><path d="M 0.136719 0.214844 L 93.722656 0.214844 L 93.722656 576.601562 L 0.136719 576.601562 Z M 0.136719 0.214844 " clip-rule="nonzero"/></clipPath><clipPath id="55a8761ec4"><path d="M 93.722656 408.878906 C 93.722656 501.378906 72.773438 576.363281 46.929688 576.363281 C 21.085938 576.363281 0.136719 501.378906 0.136719 408.878906 C 0.136719 147.605469 46.929688 0.214844 46.929688 0.214844 C 46.929688 0.214844 93.722656 154.300781 93.722656 408.878906 Z M 93.722656 408.878906 " clip-rule="nonzero"/></clipPath><clipPath id="b5f9ae6636"><rect x="0" width="94" y="0" height="577"/></clipPath><clipPath id="434c7272ce"><path d="M 0.0976562 1 L 226.035156 1 L 226.035156 289.578125 L 0.0976562 289.578125 Z M 0.0976562 1 " clip-rule="nonzero"/></clipPath><clipPath id="cb8ecd6236"><path d="M 0.0976562 106.011719 C 0.0976562 46.351562 50.675781 1.503906 113.066406 1.503906 C 175.457031 1.503906 226.035156 46.351562 226.035156 106.011719 C 226.035156 182.960938 113.066406 289.578125 113.066406 289.578125 C 113.066406 289.578125 0.0976562 182.960938 0.0976562 106.011719 Z M 0.0976562 106.011719 " clip-rule="nonzero"/></clipPath><clipPath id="02b50a4310"><path d="M 0.0976562 0.398438 L 226.035156 0.398438 L 226.035156 288.578125 L 0.0976562 288.578125 Z M 0.0976562 0.398438 " clip-rule="nonzero"/></clipPath><clipPath id="20e38bffb4"><path d="M 0.0976562 105.011719 C 0.0976562 45.351562 50.675781 0.503906 113.066406 0.503906 C 175.457031 0.503906 226.035156 45.351562 226.035156 105.011719 C 226.035156 181.960938 113.066406 288.578125 113.066406 288.578125 C 113.066406 288.578125 0.0976562 181.960938 0.0976562 105.011719 Z M 0.0976562 105.011719 " clip-rule="nonzero"/></clipPath><clipPath id="aed59bd10f"><rect x="0" width="227" y="0" height="289"/></clipPath><clipPath id="89a1570d2a"><path d="M 253.957031 1 L 479.898438 1 L 479.898438 289.578125 L 253.957031 289.578125 Z M 253.957031 1 " clip-rule="nonzero"/></clipPath><clipPath id="02846f2ceb"><path d="M 253.957031 106.011719 C 253.957031 46.351562 304.535156 1.503906 366.925781 1.503906 C 429.316406 1.503906 479.898438 46.351562 479.898438 106.011719 C 479.898438 182.960938 366.925781 289.578125 366.925781 289.578125 C 366.925781 289.578125 253.957031 182.960938 253.957031 106.011719 Z M 253.957031 106.011719 " clip-rule="nonzero"/></clipPath><clipPath id="00c7136b16"><path d="M 0.957031 0.398438 L 226.898438 0.398438 L 226.898438 288.578125 L 0.957031 288.578125 Z M 0.957031 0.398438 " clip-rule="nonzero"/></clipPath><clipPath id="0539327821"><path d="M 0.957031 105.011719 C 0.957031 45.351562 51.535156 0.503906 113.925781 0.503906 C 176.316406 0.503906 226.898438 45.351562 226.898438 105.011719 C 226.898438 181.960938 113.925781 288.578125 113.925781 288.578125 C 113.925781 288.578125 0.957031 181.960938 0.957031 105.011719 Z M 0.957031 105.011719 " clip-rule="nonzero"/></clipPath><clipPath id="9a641bc465"><rect x="0" width="227" y="0" height="289"/></clipPath><clipPath id="7a1b8dd1fa"><path d="M 66.277344 110.214844 L 159.863281 110.214844 L 159.863281 686.71875 L 66.277344 686.71875 Z M 66.277344 110.214844 " clip-rule="nonzero"/></clipPath><clipPath id="12d5266763"><path d="M 159.863281 518.878906 C 159.863281 611.378906 138.914062 686.363281 113.070312 686.363281 C 87.226562 686.363281 66.277344 611.378906 66.277344 518.878906 C 66.277344 257.605469 113.070312 110.214844 113.070312 110.214844 C 113.070312 110.214844 159.863281 264.300781 159.863281 518.878906 Z M 159.863281 518.878906 " clip-rule="nonzero"/></clipPath><clipPath id="d6fd377958"><path d="M 0.277344 0.214844 L 93.863281 0.214844 L 93.863281 576.601562 L 0.277344 576.601562 Z M 0.277344 0.214844 " clip-rule="nonzero"/></clipPath><clipPath id="b6913f6d5b"><path d="M 93.863281 408.878906 C 93.863281 501.378906 72.914062 576.363281 47.070312 576.363281 C 21.226562 576.363281 0.277344 501.378906 0.277344 408.878906 C 0.277344 147.605469 47.070312 0.214844 47.070312 0.214844 C 47.070312 0.214844 93.863281 154.300781 93.863281 408.878906 Z M 93.863281 408.878906 " clip-rule="nonzero"/></clipPath><clipPath id="2106032ec9"><rect x="0" width="94" y="0" height="577"/></clipPath><clipPath id="bb08f56f0c"><rect x="0" width="480" y="0" height="687"/></clipPath></defs><g clip-path="url(#29e011a075)"><g clip-path="url(#228545cbc6)"><g transform="matrix(1, 0, 0, 1, 40, 81)"><g clip-path="url(#1fafdd15ed)"><g clip-path="url(#a5bf588cbb)"><g clip-path="url(#a81ce8b54d)"><path fill="#ffffff" d="M -17.75 -23.503906 L 1437.585938 -23.503906 L 1437.585938 1361.503906 L -17.75 1361.503906 Z M -17.75 -23.503906 " fill-opacity="1" fill-rule="nonzero"/></g></g></g></g></g></g><g transform="matrix(1, 0, 0, 1, 510, 469)"><g clip-path="url(#bb08f56f0c)"><g clip-path="url(#bde584af0f)"><g clip-path="url(#e44f2ddea1)"><g transform="matrix(1, 0, 0, 1, 320, 110)"><g clip-path="url(#b5f9ae6636)"><g clip-path="url(#e0867484a2)"><g clip-path="url(#55a8761ec4)"><path fill="#7ed957" d="M 0.136719 0.214844 L 93.722656 0.214844 L 93.722656 576.355469 L 0.136719 576.355469 Z M 0.136719 0.214844 " fill-opacity="1" fill-rule="nonzero"/></g></g></g></g></g></g><g clip-path="url(#434c7272ce)"><g clip-path="url(#cb8ecd6236)"><g transform="matrix(1, 0, 0, 1, 0.000000000000056843, 1)"><g clip-path="url(#aed59bd10f)"><g clip-path="url(#02b50a4310)"><g clip-path="url(#20e38bffb4)"><path fill="#7ed957" d="M 226.035156 288.578125 L 0.0976562 288.578125 L 0.0976562 0.859375 L 226.035156 0.859375 Z M 226.035156 288.578125 " fill-opacity="1" fill-rule="nonzero"/></g></g></g></g></g></g><g clip-path="url(#89a1570d2a)"><g clip-path="url(#02846f2ceb)"><g transform="matrix(1, 0, 0, 1, 253, 1)"><g clip-path="url(#9a641bc465)"><g clip-path="url(#00c7136b16)"><g clip-path="url(#0539327821)"><path fill="#7ed957" d="M 226.898438 288.578125 L 0.957031 288.578125 L 0.957031 0.859375 L 226.898438 0.859375 Z M 226.898438 288.578125 " fill-opacity="1" fill-rule="nonzero"/></g></g></g></g></g></g><g clip-path="url(#7a1b8dd1fa)"><g clip-path="url(#12d5266763)"><g transform="matrix(1, 0, 0, 1, 66, 110)"><g clip-path="url(#2106032ec9)"><g clip-path="url(#d6fd377958)"><g clip-path="url(#b6913f6d5b)"><path fill="#7ed957" d="M 0.277344 0.214844 L 93.863281 0.214844 L 93.863281 576.355469 L 0.277344 576.355469 Z M 0.277344 0.214844 " fill-opacity="1" fill-rule="nonzero"/></g></g></g></g></g></g></g></g></svg>