<svg xmlns="http://www.w3.org/2000/svg" xmlns:xlink="http://www.w3.org/1999/xlink" width="2000" zoomAndPan="magnify" viewBox="0 0 1500 1499.999933" height="2000" preserveAspectRatio="xMidYMid meet" version="1.0"><defs><g/><clipPath id="ef703cddb9"><path d="M 12 35.886719 L 1488 35.886719 L 1488 1481.253906 L 12 1481.253906 Z M 12 35.886719 " clip-rule="nonzero"/></clipPath><clipPath id="4df3b8d452"><path d="M 817.539062 51.339844 L 1284.78125 276.78125 C 1327.464844 297.378906 1358.449219 336.289062 1368.960938 382.503906 L 1483.351562 885.464844 C 1493.863281 931.679688 1482.761719 980.167969 1453.195312 1017.210938 L 1129.585938 1422.636719 C 1100.019531 1459.679688 1055.199219 1481.253906 1007.800781 1481.253906 L 492.183594 1481.253906 C 444.785156 1481.253906 399.964844 1459.679688 370.394531 1422.636719 L 46.785156 1017.210938 C 17.21875 980.167969 6.121094 931.679688 16.632812 885.464844 L 131.023438 382.503906 C 141.53125 336.289062 172.515625 297.378906 215.203125 276.78125 L 682.445312 51.339844 C 725.121094 30.746094 774.859375 30.746094 817.539062 51.339844 Z M 817.539062 51.339844 " clip-rule="nonzero"/></clipPath><clipPath id="86c8d330ba"><path d="M 0 0.886719 L 1476 0.886719 L 1476 1446.253906 L 0 1446.253906 Z M 0 0.886719 " clip-rule="nonzero"/></clipPath><clipPath id="182d3acd88"><path d="M 805.539062 16.339844 L 1272.78125 241.78125 C 1315.464844 262.378906 1346.449219 301.289062 1356.960938 347.503906 L 1471.351562 850.464844 C 1481.863281 896.679688 1470.761719 945.167969 1441.195312 982.210938 L 1117.585938 1387.636719 C 1088.019531 1424.679688 1043.199219 1446.253906 995.800781 1446.253906 L 480.183594 1446.253906 C 432.785156 1446.253906 387.964844 1424.679688 358.394531 1387.636719 L 34.785156 982.210938 C 5.21875 945.167969 -5.878906 896.679688 4.632812 850.464844 L 119.023438 347.503906 C 129.53125 301.289062 160.515625 262.378906 203.203125 241.78125 L 670.445312 16.339844 C 713.121094 -4.253906 762.859375 -4.253906 805.539062 16.339844 Z M 805.539062 16.339844 " clip-rule="nonzero"/></clipPath><clipPath id="26acd9252b"><rect x="0" width="1476" y="0" height="1447"/></clipPath><clipPath id="53c63424fb"><rect x="0" width="1264" y="0" height="961"/></clipPath></defs><g clip-path="url(#ef703cddb9)"><g clip-path="url(#4df3b8d452)"><g transform="matrix(1, 0, 0, 1, 12, 35)"><g clip-path="url(#26acd9252b)"><g clip-path="url(#86c8d330ba)"><g clip-path="url(#182d3acd88)"><path fill="#e8ddcc" d="M -12 -16.253906 L 1490.496094 -16.253906 L 1490.496094 1446.253906 L -12 1446.253906 Z M -12 -16.253906 " fill-opacity="1" fill-rule="nonzero"/></g></g></g></g></g></g><g transform="matrix(1, 0, 0, 1, 118, 319)"><g clip-path="url(#53c63424fb)"><g fill="#143d29" fill-opacity="1"><g transform="translate(0.806681, 691.438634)"><g><path d="M 46.015625 0 L 46.015625 -393.4375 L 181.765625 -393.4375 L 181.765625 -352.03125 L 183.296875 -352.03125 C 218.578125 -387.300781 256.15625 -404.9375 296.03125 -404.9375 C 324.664062 -404.9375 351.507812 -399.054688 376.5625 -387.296875 C 401.613281 -375.535156 420.53125 -357.382812 433.3125 -332.84375 C 473.195312 -380.90625 516.660156 -404.9375 563.703125 -404.9375 C 605.628906 -404.9375 641.675781 -393.175781 671.84375 -369.65625 C 702.007812 -346.144531 717.09375 -309.332031 717.09375 -259.21875 L 717.09375 0 L 581.34375 0 L 581.34375 -222.40625 C 581.34375 -243.375 575.585938 -260.882812 564.078125 -274.9375 C 552.578125 -289 535.320312 -296.03125 512.3125 -296.03125 C 492.375 -296.03125 477.160156 -290.019531 466.671875 -278 C 456.191406 -265.988281 450.441406 -251.550781 449.421875 -234.6875 L 449.421875 0 L 313.671875 0 L 313.671875 -222.40625 C 313.671875 -243.375 307.921875 -260.882812 296.421875 -274.9375 C 284.921875 -289 267.664062 -296.03125 244.65625 -296.03125 C 223.6875 -296.03125 207.960938 -289.507812 197.484375 -276.46875 C 187.003906 -263.4375 181.765625 -247.972656 181.765625 -230.078125 L 181.765625 0 Z M 46.015625 0 "/></g></g></g><g fill="#143d29" fill-opacity="1"><g transform="translate(756.238113, 691.438634)"><g><path d="M 46.015625 0 L 46.015625 -659.5625 L 181.765625 -659.5625 L 181.765625 -352.03125 L 183.296875 -352.03125 C 218.578125 -387.300781 256.15625 -404.9375 296.03125 -404.9375 C 315.46875 -404.9375 334.769531 -402.378906 353.9375 -397.265625 C 373.113281 -392.160156 391.519531 -384.238281 409.15625 -373.5 C 426.800781 -362.757812 441.117188 -347.546875 452.109375 -327.859375 C 463.097656 -308.179688 468.59375 -285.300781 468.59375 -259.21875 L 468.59375 0 L 332.84375 0 L 332.84375 -222.40625 C 332.84375 -242.863281 326.320312 -260.757812 313.28125 -276.09375 C 300.25 -291.4375 283.253906 -299.109375 262.296875 -299.109375 C 241.835938 -299.109375 223.300781 -291.179688 206.6875 -275.328125 C 190.070312 -259.484375 181.765625 -241.84375 181.765625 -222.40625 L 181.765625 0 Z M 46.015625 0 "/></g></g></g></g></g></svg>