<svg xmlns="http://www.w3.org/2000/svg" xmlns:xlink="http://www.w3.org/1999/xlink" width="2000" zoomAndPan="magnify" viewBox="0 0 1500 1499.999933" height="2000" preserveAspectRatio="xMidYMid meet" version="1.0"><defs><filter x="0%" y="0%" width="100%" height="100%" id="63f3f9bf75"><feColorMatrix values="0 0 0 0 1 0 0 0 0 1 0 0 0 0 1 0 0 0 1 0" color-interpolation-filters="sRGB"/></filter><g/><clipPath id="6fd7a1da52"><path d="M 35 57.070312 L 1465 57.070312 L 1465 1459.558594 L 35 1459.558594 Z M 35 57.070312 " clip-rule="nonzero"/></clipPath><clipPath id="6a1fa6146d"><path d="M 817.539062 73.03125 L 1266.914062 289.851562 C 1309.597656 310.449219 1340.582031 349.363281 1351.09375 395.574219 L 1461.101562 879.273438 C 1471.613281 925.492188 1460.515625 973.980469 1430.945312 1011.023438 L 1119.714844 1400.945312 C 1090.144531 1437.988281 1045.324219 1459.558594 997.929688 1459.558594 L 502.054688 1459.558594 C 454.65625 1459.558594 409.835938 1437.988281 380.269531 1400.945312 L 69.035156 1011.023438 C 39.46875 973.980469 28.371094 925.492188 38.882812 879.273438 L 148.890625 395.574219 C 159.402344 349.363281 190.386719 310.449219 233.070312 289.851562 L 682.445312 73.03125 C 725.121094 52.441406 774.863281 52.441406 817.539062 73.03125 Z M 817.539062 73.03125 " clip-rule="nonzero"/></clipPath><clipPath id="4e8bc481d1"><path d="M 0 0.0703125 L 1430 0.0703125 L 1430 1402.558594 L 0 1402.558594 Z M 0 0.0703125 " clip-rule="nonzero"/></clipPath><clipPath id="08b83e2332"><path d="M 782.539062 16.03125 L 1231.914062 232.851562 C 1274.597656 253.449219 1305.582031 292.363281 1316.09375 338.574219 L 1426.101562 822.273438 C 1436.613281 868.492188 1425.515625 916.980469 1395.945312 954.023438 L 1084.714844 1343.945312 C 1055.144531 1380.988281 1010.324219 1402.558594 962.929688 1402.558594 L 467.054688 1402.558594 C 419.65625 1402.558594 374.835938 1380.988281 345.269531 1343.945312 L 34.035156 954.023438 C 4.46875 916.980469 -6.628906 868.492188 3.882812 822.273438 L 113.890625 338.574219 C 124.402344 292.363281 155.386719 253.449219 198.070312 232.851562 L 647.445312 16.03125 C 690.121094 -4.558594 739.863281 -4.558594 782.539062 16.03125 Z M 782.539062 16.03125 " clip-rule="nonzero"/></clipPath><clipPath id="e6c969d43a"><rect x="0" width="1430" y="0" height="1403"/></clipPath><clipPath id="d62f76f690"><path d="M 106 127 L 1394 127 L 1394 1390.136719 L 106 1390.136719 Z M 106 127 " clip-rule="nonzero"/></clipPath><clipPath id="c27a032d04"><path d="M 817.539062 142.453125 L 1209.730469 331.683594 C 1252.414062 352.28125 1283.398438 391.191406 1293.910156 437.40625 L 1389.902344 859.472656 C 1400.414062 905.6875 1389.316406 954.175781 1359.746094 991.21875 L 1088.121094 1331.523438 C 1058.550781 1368.566406 1013.730469 1390.136719 966.332031 1390.136719 L 533.652344 1390.136719 C 486.253906 1390.136719 441.433594 1368.566406 411.863281 1331.523438 L 140.238281 991.21875 C 110.671875 954.175781 99.570312 905.6875 110.082031 859.472656 L 206.074219 437.40625 C 216.585938 391.191406 247.570312 352.28125 290.253906 331.683594 L 682.445312 142.453125 C 725.121094 121.859375 774.863281 121.859375 817.539062 142.453125 Z M 817.539062 142.453125 " clip-rule="nonzero"/></clipPath><clipPath id="1f03626694"><path d="M 0 0 L 1288 0 L 1288 1263.136719 L 0 1263.136719 Z M 0 0 " clip-rule="nonzero"/></clipPath><clipPath id="9090d81249"><path d="M 711.539062 15.453125 L 1103.730469 204.683594 C 1146.414062 225.28125 1177.398438 264.191406 1187.910156 310.40625 L 1283.902344 732.472656 C 1294.414062 778.6875 1283.316406 827.175781 1253.746094 864.21875 L 982.121094 1204.523438 C 952.550781 1241.566406 907.730469 1263.136719 860.332031 1263.136719 L 427.652344 1263.136719 C 380.253906 1263.136719 335.433594 1241.566406 305.863281 1204.523438 L 34.238281 864.21875 C 4.671875 827.175781 -6.429688 778.6875 4.082031 732.472656 L 100.074219 310.40625 C 110.585938 264.191406 141.570312 225.28125 184.253906 204.683594 L 576.445312 15.453125 C 619.121094 -5.140625 668.863281 -5.140625 711.539062 15.453125 Z M 711.539062 15.453125 " clip-rule="nonzero"/></clipPath><clipPath id="3005e99485"><rect x="0" width="1288" y="0" height="1264"/></clipPath><mask id="13e7f31d04"><g filter="url(#63f3f9bf75)"><rect x="-150" width="1800" fill="#000000" y="-149.999993" height="1799.99992" fill-opacity="0.25"/></g></mask><clipPath id="10bf9be5ae"><path d="M 213.453125 213.398438 L 930.453125 213.398438 L 930.453125 930.398438 L 213.453125 930.398438 Z M 213.453125 213.398438 " clip-rule="nonzero"/></clipPath><clipPath id="f09fe3a622"><path d="M 572.054688 213.398438 C 374.003906 213.398438 213.453125 373.949219 213.453125 572 C 213.453125 770.050781 374.003906 930.597656 572.054688 930.597656 C 770.101562 930.597656 930.652344 770.050781 930.652344 572 C 930.652344 373.949219 770.101562 213.398438 572.054688 213.398438 Z M 572.054688 213.398438 " clip-rule="nonzero"/></clipPath><clipPath id="7d0728c8ad"><rect x="0" width="1144" y="0" height="1144"/></clipPath><clipPath id="c2aa3bb363"><path d="M 302 1015.230469 L 1193.453125 1015.230469 L 1193.453125 1459.558594 L 302 1459.558594 Z M 302 1015.230469 " clip-rule="nonzero"/></clipPath><clipPath id="dc208933a8"><path d="M 473.203125 1459.558594 L 1022.523438 1459.558594 C 1066.628906 1459.558594 1105.105469 1429.613281 1115.929688 1386.855469 L 1191.613281 1087.9375 C 1196.03125 1070.480469 1192.148438 1051.960938 1181.089844 1037.753906 C 1170.027344 1023.542969 1153.027344 1015.230469 1135.023438 1015.230469 L 360.703125 1015.230469 C 342.699219 1015.230469 325.699219 1023.542969 314.636719 1037.753906 C 303.578125 1051.960938 299.695312 1070.480469 304.113281 1087.9375 L 379.796875 1386.855469 C 390.621094 1429.613281 429.097656 1459.558594 473.203125 1459.558594 Z M 473.203125 1459.558594 " clip-rule="nonzero"/></clipPath><clipPath id="6f0c221daf"><path d="M 0 0.230469 L 891.453125 0.230469 L 891.453125 444.558594 L 0 444.558594 Z M 0 0.230469 " clip-rule="nonzero"/></clipPath><clipPath id="7a68e0fa70"><path d="M 171.203125 444.558594 L 720.523438 444.558594 C 764.628906 444.558594 803.105469 414.613281 813.929688 371.855469 L 889.613281 72.9375 C 894.03125 55.480469 890.148438 36.960938 879.089844 22.753906 C 868.027344 8.542969 851.027344 0.230469 833.023438 0.230469 L 58.703125 0.230469 C 40.699219 0.230469 23.699219 8.542969 12.636719 22.753906 C 1.578125 36.960938 -2.304688 55.480469 2.113281 72.9375 L 77.796875 371.855469 C 88.621094 414.613281 127.097656 444.558594 171.203125 444.558594 Z M 171.203125 444.558594 " clip-rule="nonzero"/></clipPath><clipPath id="cdbb3a6a12"><rect x="0" width="892" y="0" height="445"/></clipPath><mask id="f9b28ce16f"><g filter="url(#63f3f9bf75)"><rect x="-150" width="1800" fill="#000000" y="-149.999993" height="1799.99992" fill-opacity="0.5"/></g></mask><clipPath id="2728cc2549"><path d="M 0.8125 1 L 73.1875 1 L 73.1875 226 L 0.8125 226 Z M 0.8125 1 " clip-rule="nonzero"/></clipPath><clipPath id="8ad8680fbe"><path d="M 0.8125 113.5 C 0.8125 51.367188 17.015625 1 37 1 C 56.984375 1 73.1875 51.367188 73.1875 113.5 C 73.1875 175.632812 56.984375 226 37 226 C 17.015625 226 0.8125 175.632812 0.8125 113.5 Z M 0.8125 113.5 " clip-rule="nonzero"/></clipPath><clipPath id="073f6347e8"><path d="M 0.8125 0 L 73.1875 0 L 73.1875 225 L 0.8125 225 Z M 0.8125 0 " clip-rule="nonzero"/></clipPath><clipPath id="f79e6992eb"><path d="M 0.8125 112.5 C 0.8125 50.367188 17.015625 0 37 0 C 56.984375 0 73.1875 50.367188 73.1875 112.5 C 73.1875 174.632812 56.984375 225 37 225 C 17.015625 225 0.8125 174.632812 0.8125 112.5 Z M 0.8125 112.5 " clip-rule="nonzero"/></clipPath><clipPath id="eaf03d2865"><rect x="0" width="74" y="0" height="225"/></clipPath><clipPath id="db4efca1c9"><rect x="0" width="74" y="0" height="227"/></clipPath><mask id="c3dd08c640"><g filter="url(#63f3f9bf75)"><rect x="-150" width="1800" fill="#000000" y="-149.999993" height="1799.99992" fill-opacity="0.5"/></g></mask><clipPath id="683403a822"><path d="M 20 23 L 200 23 L 200 179 L 20 179 Z M 20 23 " clip-rule="nonzero"/></clipPath><clipPath id="f947cc6269"><path d="M 0.585938 145.523438 L 173.191406 1.121094 L 219.632812 56.632812 L 47.027344 201.035156 Z M 0.585938 145.523438 " clip-rule="nonzero"/></clipPath><clipPath id="43356f644e"><path d="M 86.875 73.335938 C 134.527344 33.46875 183.554688 13.574219 196.378906 28.902344 C 209.203125 44.234375 180.96875 88.980469 133.3125 128.847656 C 85.660156 168.714844 36.632812 188.609375 23.808594 173.277344 C 10.984375 157.949219 39.21875 113.203125 86.875 73.335938 Z M 86.875 73.335938 " clip-rule="nonzero"/></clipPath><clipPath id="18660c6341"><path d="M 0 0 L 180 0 L 180 156 L 0 156 Z M 0 0 " clip-rule="nonzero"/></clipPath><clipPath id="6e3cff535f"><path d="M -19.414062 122.523438 L 153.191406 -21.878906 L 199.632812 33.632812 L 27.027344 178.035156 Z M -19.414062 122.523438 " clip-rule="nonzero"/></clipPath><clipPath id="9cf7b332ff"><path d="M 66.875 50.335938 C 114.527344 10.46875 163.554688 -9.425781 176.378906 5.902344 C 189.203125 21.234375 160.96875 65.980469 113.3125 105.847656 C 65.660156 145.714844 16.632812 165.609375 3.808594 150.277344 C -9.015625 134.949219 19.21875 90.203125 66.875 50.335938 Z M 66.875 50.335938 " clip-rule="nonzero"/></clipPath><clipPath id="555fa41f99"><rect x="0" width="180" y="0" height="156"/></clipPath><clipPath id="1472542dd8"><rect x="0" width="220" y="0" height="202"/></clipPath><mask id="90b937f7b9"><g filter="url(#63f3f9bf75)"><rect x="-150" width="1800" fill="#000000" y="-149.999993" height="1799.99992" fill-opacity="0.5"/></g></mask><clipPath id="0cf0a45f6f"><path d="M 9 19 L 228 19 L 228 110 L 9 110 Z M 9 19 " clip-rule="nonzero"/></clipPath><clipPath id="b62023c1c5"><path d="M 19.171875 0.882812 L 236.835938 58.027344 L 218.457031 128.03125 L 0.792969 70.886719 Z M 19.171875 0.882812 " clip-rule="nonzero"/></clipPath><clipPath id="6e7e7c0f1d"><path d="M 127.984375 29.449219 C 188.078125 45.226562 232.679688 73.6875 227.605469 93.019531 C 222.53125 112.351562 169.699219 115.230469 109.605469 99.453125 C 49.507812 83.675781 4.90625 55.214844 9.980469 35.886719 C 15.054688 16.554688 67.886719 13.671875 127.984375 29.449219 Z M 127.984375 29.449219 " clip-rule="nonzero"/></clipPath><clipPath id="bd5d9032b8"><path d="M 0 0 L 219 0 L 219 91 L 0 91 Z M 0 0 " clip-rule="nonzero"/></clipPath><clipPath id="05f2fb5474"><path d="M 10.171875 -18.117188 L 227.835938 39.027344 L 209.457031 109.03125 L -8.207031 51.886719 Z M 10.171875 -18.117188 " clip-rule="nonzero"/></clipPath><clipPath id="772242db4a"><path d="M 118.984375 10.449219 C 179.078125 26.226562 223.679688 54.6875 218.605469 74.019531 C 213.53125 93.351562 160.699219 96.230469 100.605469 80.453125 C 40.507812 64.675781 -4.09375 36.214844 0.980469 16.886719 C 6.054688 -2.445312 58.886719 -5.328125 118.984375 10.449219 Z M 118.984375 10.449219 " clip-rule="nonzero"/></clipPath><clipPath id="0d9a1ed733"><rect x="0" width="219" y="0" height="91"/></clipPath><clipPath id="20245272d2"><rect x="0" width="237" y="0" height="129"/></clipPath><mask id="8155209634"><g filter="url(#63f3f9bf75)"><rect x="-150" width="1800" fill="#000000" y="-149.999993" height="1799.99992" fill-opacity="0.5"/></g></mask><clipPath id="0dc328a5ab"><path d="M 14 22 L 223 22 L 223 135 L 14 135 Z M 14 22 " clip-rule="nonzero"/></clipPath><clipPath id="9df38fb5db"><path d="M 236.203125 66.632812 L 29.941406 156.625 L 0.996094 90.289062 L 207.261719 0.296875 Z M 236.203125 66.632812 " clip-rule="nonzero"/></clipPath><clipPath id="e3dc99c6dc"><path d="M 133.089844 111.621094 C 76.144531 136.464844 23.5 141.757812 15.507812 123.441406 C 7.515625 105.121094 47.203125 70.128906 104.148438 45.285156 C 161.097656 20.4375 213.742188 15.144531 221.734375 33.464844 C 229.726562 51.78125 190.039062 86.773438 133.089844 111.621094 Z M 133.089844 111.621094 " clip-rule="nonzero"/></clipPath><clipPath id="ee3c961b5b"><path d="M 0 0 L 209 0 L 209 113 L 0 113 Z M 0 0 " clip-rule="nonzero"/></clipPath><clipPath id="d8ec145119"><path d="M 222.203125 44.632812 L 15.941406 134.625 L -13.003906 68.289062 L 193.261719 -21.703125 Z M 222.203125 44.632812 " clip-rule="nonzero"/></clipPath><clipPath id="b0d7c469b3"><path d="M 119.089844 89.621094 C 62.144531 114.464844 9.5 119.757812 1.507812 101.441406 C -6.484375 83.121094 33.203125 48.128906 90.148438 23.285156 C 147.097656 -1.5625 199.742188 -6.855469 207.734375 11.464844 C 215.726562 29.78125 176.039062 64.773438 119.089844 89.621094 Z M 119.089844 89.621094 " clip-rule="nonzero"/></clipPath><clipPath id="e9edf9499e"><rect x="0" width="209" y="0" height="113"/></clipPath><clipPath id="56e32d2ce2"><rect x="0" width="237" y="0" height="157"/></clipPath><mask id="d2aeb36e0a"><g filter="url(#63f3f9bf75)"><rect x="-150" width="1800" fill="#000000" y="-149.999993" height="1799.99992" fill-opacity="0.5"/></g></mask><clipPath id="178a172b66"><path d="M 20 23 L 202 23 L 202 176 L 20 176 Z M 20 23 " clip-rule="nonzero"/></clipPath><clipPath id="d8ab807ac1"><path d="M 176.207031 198.035156 L 0.929688 56.890625 L 46.320312 0.519531 L 221.601562 141.664062 Z M 176.207031 198.035156 " clip-rule="nonzero"/></clipPath><clipPath id="073b242759"><path d="M 88.585938 127.476562 C 40.191406 88.507812 11.121094 44.300781 23.65625 28.734375 C 36.191406 13.167969 85.582031 32.136719 133.976562 71.105469 C 182.371094 110.074219 211.4375 154.28125 198.902344 169.847656 C 186.367188 185.414062 136.976562 166.445312 88.585938 127.476562 Z M 88.585938 127.476562 " clip-rule="nonzero"/></clipPath><clipPath id="4281dc21a1"><path d="M 0 0 L 182 0 L 182 153 L 0 153 Z M 0 0 " clip-rule="nonzero"/></clipPath><clipPath id="bd305eef47"><path d="M 156.207031 175.035156 L -19.070312 33.890625 L 26.320312 -22.480469 L 201.601562 118.664062 Z M 156.207031 175.035156 " clip-rule="nonzero"/></clipPath><clipPath id="7dccfbd11e"><path d="M 68.585938 104.476562 C 20.191406 65.507812 -8.878906 21.300781 3.65625 5.734375 C 16.191406 -9.832031 65.582031 9.136719 113.976562 48.105469 C 162.371094 87.074219 191.4375 131.28125 178.902344 146.847656 C 166.367188 162.414062 116.976562 143.445312 68.585938 104.476562 Z M 68.585938 104.476562 " clip-rule="nonzero"/></clipPath><clipPath id="1b060f8cb3"><rect x="0" width="182" y="0" height="153"/></clipPath><clipPath id="9c0bab14ab"><rect x="0" width="222" y="0" height="199"/></clipPath></defs><g clip-path="url(#6fd7a1da52)"><g clip-path="url(#6a1fa6146d)"><g transform="matrix(1, 0, 0, 1, 35, 57)"><g clip-path="url(#e6c969d43a)"><g clip-path="url(#4e8bc481d1)"><g clip-path="url(#08b83e2332)"><path fill="#c4b7a2" d="M -12.75 -16.558594 L 1445.171875 -16.558594 L 1445.171875 1402.558594 L -12.75 1402.558594 Z M -12.75 -16.558594 " fill-opacity="1" fill-rule="nonzero"/></g></g></g></g></g></g><g clip-path="url(#d62f76f690)"><g clip-path="url(#c27a032d04)"><g transform="matrix(1, 0, 0, 1, 106, 127)"><g clip-path="url(#3005e99485)"><g clip-path="url(#1f03626694)"><g clip-path="url(#9090d81249)"><path fill="#e8ddcc" d="M -12.550781 -17.136719 L 1302.734375 -17.136719 L 1302.734375 1263.136719 L -12.550781 1263.136719 Z M -12.550781 -17.136719 " fill-opacity="1" fill-rule="nonzero"/></g></g></g></g></g></g><g mask="url(#13e7f31d04)"><g transform="matrix(1, 0, 0, 1, 178, 178)"><g clip-path="url(#7d0728c8ad)"><g clip-path="url(#10bf9be5ae)"><g clip-path="url(#f09fe3a622)"><path stroke-linecap="butt" transform="matrix(0.75, 0, 0, 0.75, 213.454589, 213.40019)" fill="none" stroke-linejoin="miter" d="M 478.133536 -0.00233705 C 214.065788 -0.00233705 -0.00195231 214.065403 -0.00195231 478.133151 C -0.00195231 742.195691 214.065788 956.263432 478.133536 956.263432 C 742.196076 956.263432 956.263816 742.195691 956.263816 478.133151 C 956.263816 214.065403 742.196076 -0.00233705 478.133536 -0.00233705 Z M 478.133536 -0.00233705 " stroke="#143d29" stroke-width="140" stroke-opacity="1" stroke-miterlimit="4"/></g></g></g></g></g><g clip-path="url(#c2aa3bb363)"><g clip-path="url(#dc208933a8)"><g transform="matrix(1, 0, 0, 1, 302, 1015)"><g clip-path="url(#cdbb3a6a12)"><g clip-path="url(#6f0c221daf)"><g clip-path="url(#7a68e0fa70)"><path fill="#143d29" d="M -16.296875 0.230469 L 908.808594 0.230469 L 908.808594 444.558594 L -16.296875 444.558594 Z M -16.296875 0.230469 " fill-opacity="1" fill-rule="nonzero"/></g></g></g></g></g></g><g mask="url(#f9b28ce16f)"><g transform="matrix(1, 0, 0, 1, 713, 149)"><g clip-path="url(#db4efca1c9)"><g clip-path="url(#2728cc2549)"><g clip-path="url(#8ad8680fbe)"><g transform="matrix(1, 0, 0, 1, 0.000000000000113687, 1)"><g clip-path="url(#eaf03d2865)"><g clip-path="url(#073f6347e8)"><g clip-path="url(#f79e6992eb)"><path fill="#143d29" d="M 0.8125 225 L 0.8125 -0.0429688 L 73.1875 -0.0429688 L 73.1875 225 Z M 0.8125 225 " fill-opacity="1" fill-rule="nonzero"/></g></g></g></g></g></g></g></g></g><g mask="url(#c3dd08c640)"><g transform="matrix(1, 0, 0, 1, 1051, 342)"><g clip-path="url(#1472542dd8)"><g clip-path="url(#683403a822)"><g clip-path="url(#f947cc6269)"><g clip-path="url(#43356f644e)"><g transform="matrix(1, 0, 0, 1, 20, 23)"><g clip-path="url(#555fa41f99)"><g clip-path="url(#18660c6341)"><g clip-path="url(#6e3cff535f)"><g clip-path="url(#9cf7b332ff)"><path fill="#143d29" d="M -19.414062 122.523438 L 153.191406 -21.878906 L 199.632812 33.632812 L 27.027344 178.035156 Z M -19.414062 122.523438 " fill-opacity="1" fill-rule="nonzero"/></g></g></g></g></g></g></g></g></g></g></g><g mask="url(#90b937f7b9)"><g transform="matrix(1, 0, 0, 1, 1128, 828)"><g clip-path="url(#20245272d2)"><g clip-path="url(#0cf0a45f6f)"><g clip-path="url(#b62023c1c5)"><g clip-path="url(#6e7e7c0f1d)"><g transform="matrix(1, 0, 0, 1, 9, 19)"><g clip-path="url(#0d9a1ed733)"><g clip-path="url(#bd5d9032b8)"><g clip-path="url(#05f2fb5474)"><g clip-path="url(#772242db4a)"><path fill="#143d29" d="M 10.171875 -18.117188 L 227.835938 39.027344 L 209.457031 109.03125 L -8.207031 51.886719 Z M 10.171875 -18.117188 " fill-opacity="1" fill-rule="nonzero"/></g></g></g></g></g></g></g></g></g></g></g><g mask="url(#8155209634)"><g transform="matrix(1, 0, 0, 1, 135, 814)"><g clip-path="url(#56e32d2ce2)"><g clip-path="url(#0dc328a5ab)"><g clip-path="url(#9df38fb5db)"><g clip-path="url(#e3dc99c6dc)"><g transform="matrix(1, 0, 0, 1, 14, 22)"><g clip-path="url(#e9edf9499e)"><g clip-path="url(#ee3c961b5b)"><g clip-path="url(#d8ec145119)"><g clip-path="url(#b0d7c469b3)"><path fill="#143d29" d="M 222.203125 44.632812 L 15.941406 134.625 L -13.003906 68.289062 L 193.261719 -21.703125 Z M 222.203125 44.632812 " fill-opacity="1" fill-rule="nonzero"/></g></g></g></g></g></g></g></g></g></g></g><g mask="url(#d2aeb36e0a)"><g transform="matrix(1, 0, 0, 1, 227, 345)"><g clip-path="url(#9c0bab14ab)"><g clip-path="url(#178a172b66)"><g clip-path="url(#d8ab807ac1)"><g clip-path="url(#073b242759)"><g transform="matrix(1, 0, 0, 1, 20, 23)"><g clip-path="url(#1b060f8cb3)"><g clip-path="url(#4281dc21a1)"><g clip-path="url(#bd305eef47)"><g clip-path="url(#7dccfbd11e)"><path fill="#143d29" d="M 156.207031 175.035156 L -19.070312 33.890625 L 26.320312 -22.480469 L 201.601562 118.664062 Z M 156.207031 175.035156 " fill-opacity="1" fill-rule="nonzero"/></g></g></g></g></g></g></g></g></g></g></g><g fill="#143d29" fill-opacity="1"><g transform="translate(377.808752, 873.374905)"><g><path d="M 26.984375 0 L 26.984375 -230.671875 L 106.5625 -230.671875 L 106.5625 -206.390625 L 107.46875 -206.390625 C 128.144531 -227.066406 150.175781 -237.40625 173.5625 -237.40625 C 190.34375 -237.40625 206.078125 -233.957031 220.765625 -227.0625 C 235.460938 -220.175781 246.554688 -209.535156 254.046875 -195.140625 C 277.429688 -223.316406 302.910156 -237.40625 330.484375 -237.40625 C 355.066406 -237.40625 376.195312 -230.507812 393.875 -216.71875 C 411.5625 -202.9375 420.40625 -181.359375 420.40625 -151.984375 L 420.40625 0 L 340.828125 0 L 340.828125 -130.390625 C 340.828125 -142.679688 337.453125 -152.945312 330.703125 -161.1875 C 323.960938 -169.4375 313.847656 -173.5625 300.359375 -173.5625 C 288.671875 -173.5625 279.753906 -170.035156 273.609375 -162.984375 C 267.460938 -155.941406 264.085938 -147.476562 263.484375 -137.59375 L 263.484375 0 L 183.90625 0 L 183.90625 -130.390625 C 183.90625 -142.679688 180.53125 -152.945312 173.78125 -161.1875 C 167.039062 -169.4375 156.925781 -173.5625 143.4375 -173.5625 C 131.144531 -173.5625 121.925781 -169.738281 115.78125 -162.09375 C 109.632812 -154.445312 106.5625 -145.378906 106.5625 -134.890625 L 106.5625 0 Z M 26.984375 0 "/></g></g></g><g fill="#143d29" fill-opacity="1"><g transform="translate(820.703349, 873.374905)"><g><path d="M 26.984375 0 L 26.984375 -386.6875 L 106.5625 -386.6875 L 106.5625 -206.390625 L 107.46875 -206.390625 C 128.144531 -227.066406 150.175781 -237.40625 173.5625 -237.40625 C 184.945312 -237.40625 196.257812 -235.90625 207.5 -232.90625 C 218.75 -229.914062 229.539062 -225.269531 239.875 -218.96875 C 250.21875 -212.675781 258.613281 -203.757812 265.0625 -192.21875 C 271.507812 -180.675781 274.734375 -167.265625 274.734375 -151.984375 L 274.734375 0 L 195.140625 0 L 195.140625 -130.390625 C 195.140625 -142.378906 191.316406 -152.867188 183.671875 -161.859375 C 176.035156 -170.859375 166.070312 -175.359375 153.78125 -175.359375 C 141.789062 -175.359375 130.921875 -170.710938 121.171875 -161.421875 C 111.429688 -152.128906 106.5625 -141.785156 106.5625 -130.390625 L 106.5625 0 Z M 26.984375 0 "/></g></g></g></svg>