<svg xmlns="http://www.w3.org/2000/svg" xmlns:xlink="http://www.w3.org/1999/xlink" width="2000" zoomAndPan="magnify" viewBox="0 0 1500 1499.999933" height="2000" preserveAspectRatio="xMidYMid meet" version="1.0"><defs><filter x="0%" y="0%" width="100%" height="100%" id="4eef89c4c0"><feColorMatrix values="0 0 0 0 1 0 0 0 0 1 0 0 0 0 1 0 0 0 1 0" color-interpolation-filters="sRGB"/></filter><clipPath id="766851b989"><path d="M 194 212 L 1306 212 L 1306 1304.246094 L 194 1304.246094 Z M 194 212 " clip-rule="nonzero"/></clipPath><clipPath id="bd46863947"><path d="M 817.539062 228.34375 L 1138.980469 383.4375 C 1181.667969 404.035156 1212.652344 442.949219 1223.160156 489.164062 L 1301.808594 834.972656 C 1312.320312 881.1875 1301.222656 929.675781 1271.65625 966.71875 L 1049.03125 1245.628906 C 1019.460938 1282.675781 974.640625 1304.246094 927.242188 1304.246094 L 572.742188 1304.246094 C 525.347656 1304.246094 480.523438 1282.675781 450.957031 1245.628906 L 228.332031 966.71875 C 198.761719 929.675781 187.664062 881.1875 198.175781 834.972656 L 276.824219 489.164062 C 287.335938 442.949219 318.320312 404.035156 361.003906 383.4375 L 682.445312 228.34375 C 725.125 207.753906 774.863281 207.753906 817.539062 228.34375 Z M 817.539062 228.34375 " clip-rule="nonzero"/></clipPath><clipPath id="eb0b012473"><path d="M 0 0 L 1112 0 L 1112 1092.246094 L 0 1092.246094 Z M 0 0 " clip-rule="nonzero"/></clipPath><clipPath id="2a5f9973e2"><path d="M 623.539062 16.34375 L 944.980469 171.4375 C 987.667969 192.035156 1018.652344 230.949219 1029.160156 277.164062 L 1107.808594 622.972656 C 1118.320312 669.1875 1107.222656 717.675781 1077.65625 754.71875 L 855.03125 1033.628906 C 825.460938 1070.675781 780.640625 1092.246094 733.242188 1092.246094 L 378.742188 1092.246094 C 331.347656 1092.246094 286.523438 1070.675781 256.957031 1033.628906 L 34.332031 754.71875 C 4.761719 717.675781 -6.335938 669.1875 4.175781 622.972656 L 82.824219 277.164062 C 93.335938 230.949219 124.320312 192.035156 167.003906 171.4375 L 488.445312 16.34375 C 531.125 -4.246094 580.863281 -4.246094 623.539062 16.34375 Z M 623.539062 16.34375 " clip-rule="nonzero"/></clipPath><clipPath id="903fcb6556"><rect x="0" width="1112" y="0" height="1093"/></clipPath><clipPath id="84b9d25f49"><path d="M 249 267 L 1251 267 L 1251 1250.019531 L 249 1250.019531 Z M 249 267 " clip-rule="nonzero"/></clipPath><clipPath id="2878e9a036"><path d="M 817.542969 282.570312 L 1094.316406 416.113281 C 1137 436.710938 1167.984375 475.621094 1178.496094 521.835938 L 1246.195312 819.503906 C 1256.707031 865.71875 1245.609375 914.207031 1216.039062 951.25 L 1024.351562 1191.40625 C 994.78125 1228.449219 949.960938 1250.019531 902.566406 1250.019531 L 597.421875 1250.019531 C 550.027344 1250.019531 505.207031 1228.449219 475.636719 1191.40625 L 283.949219 951.25 C 254.378906 914.207031 243.28125 865.71875 253.792969 819.503906 L 321.492188 521.835938 C 332.003906 475.621094 362.988281 436.710938 405.671875 416.113281 L 682.445312 282.570312 C 725.125 261.980469 774.863281 261.980469 817.542969 282.570312 Z M 817.542969 282.570312 " clip-rule="nonzero"/></clipPath><clipPath id="8cae89dc1d"><path d="M 0 0 L 1002 0 L 1002 983.019531 L 0 983.019531 Z M 0 0 " clip-rule="nonzero"/></clipPath><clipPath id="bc68bc54b9"><path d="M 568.542969 15.570312 L 845.316406 149.113281 C 888 169.710938 918.984375 208.621094 929.496094 254.835938 L 997.195312 552.503906 C 1007.707031 598.71875 996.609375 647.207031 967.039062 684.25 L 775.351562 924.40625 C 745.78125 961.449219 700.960938 983.019531 653.566406 983.019531 L 348.421875 983.019531 C 301.027344 983.019531 256.207031 961.449219 226.636719 924.40625 L 34.949219 684.25 C 5.378906 647.207031 -5.71875 598.71875 4.792969 552.503906 L 72.492188 254.835938 C 83.003906 208.621094 113.988281 169.710938 156.671875 149.113281 L 433.445312 15.570312 C 476.125 -5.019531 525.863281 -5.019531 568.542969 15.570312 Z M 568.542969 15.570312 " clip-rule="nonzero"/></clipPath><clipPath id="ebe71f461b"><rect x="0" width="1002" y="0" height="984"/></clipPath><mask id="d17e5914d2"><g filter="url(#4eef89c4c0)"><rect x="-150" width="1800" fill="#000000" y="-149.999993" height="1799.99992" fill-opacity="0.25"/></g></mask><clipPath id="9f221e626d"><path d="M 210.933594 210.894531 L 771.136719 210.894531 L 771.136719 771.097656 L 210.933594 771.097656 Z M 210.933594 210.894531 " clip-rule="nonzero"/></clipPath><clipPath id="a0b3a19e60"><path d="M 491.035156 210.894531 C 336.339844 210.894531 210.933594 336.296875 210.933594 490.996094 C 210.933594 645.691406 336.339844 771.097656 491.035156 771.097656 C 645.734375 771.097656 771.136719 645.691406 771.136719 490.996094 C 771.136719 336.296875 645.734375 210.894531 491.035156 210.894531 Z M 491.035156 210.894531 " clip-rule="nonzero"/></clipPath><clipPath id="56d2a22443"><rect x="0" width="982" y="0" height="982"/></clipPath><clipPath id="7be03489ac"><path d="M 403.601562 957.175781 L 1093 957.175781 L 1093 1304.246094 L 403.601562 1304.246094 Z M 403.601562 957.175781 " clip-rule="nonzero"/></clipPath><clipPath id="76d6c2305b"><path d="M 550.207031 1304.246094 L 946.453125 1304.246094 C 990.5625 1304.246094 1029.035156 1274.296875 1039.863281 1231.542969 L 1090.921875 1029.882812 C 1095.339844 1012.425781 1091.457031 993.90625 1080.394531 979.695312 C 1069.335938 965.488281 1052.335938 957.175781 1034.328125 957.175781 L 462.332031 957.175781 C 444.324219 957.175781 427.328125 965.488281 416.265625 979.695312 C 405.207031 993.90625 401.320312 1012.425781 405.742188 1029.882812 L 456.800781 1231.542969 C 467.625 1274.296875 506.101562 1304.246094 550.207031 1304.246094 Z M 550.207031 1304.246094 " clip-rule="nonzero"/></clipPath><clipPath id="aeb445a76c"><path d="M 0.601562 0.175781 L 690 0.175781 L 690 347.246094 L 0.601562 347.246094 Z M 0.601562 0.175781 " clip-rule="nonzero"/></clipPath><clipPath id="9e398723ba"><path d="M 147.207031 347.246094 L 543.453125 347.246094 C 587.5625 347.246094 626.035156 317.296875 636.863281 274.542969 L 687.921875 72.882812 C 692.339844 55.425781 688.457031 36.90625 677.394531 22.695312 C 666.335938 8.488281 649.335938 0.175781 631.328125 0.175781 L 59.332031 0.175781 C 41.324219 0.175781 24.328125 8.488281 13.265625 22.695312 C 2.207031 36.90625 -1.679688 55.425781 2.742188 72.882812 L 53.800781 274.542969 C 64.625 317.296875 103.101562 347.246094 147.207031 347.246094 Z M 147.207031 347.246094 " clip-rule="nonzero"/></clipPath><clipPath id="f8391ef190"><rect x="0" width="690" y="0" height="348"/></clipPath><mask id="0a9946a6bd"><g filter="url(#4eef89c4c0)"><rect x="-150" width="1800" fill="#000000" y="-149.999993" height="1799.99992" fill-opacity="0.5"/></g></mask><clipPath id="49a46571d8"><path d="M 0.730469 0.296875 L 57.265625 0.296875 L 57.265625 176.078125 L 0.730469 176.078125 Z M 0.730469 0.296875 " clip-rule="nonzero"/></clipPath><clipPath id="fa0ed39dc0"><path d="M 0.730469 88.203125 C 0.730469 39.671875 13.386719 0.328125 29 0.328125 C 44.609375 0.328125 57.265625 39.671875 57.265625 88.203125 C 57.265625 136.734375 44.609375 176.078125 29 176.078125 C 13.386719 176.078125 0.730469 136.734375 0.730469 88.203125 Z M 0.730469 88.203125 " clip-rule="nonzero"/></clipPath><clipPath id="7d7edaddab"><path d="M 0.730469 0.296875 L 57.265625 0.296875 L 57.265625 176.078125 L 0.730469 176.078125 Z M 0.730469 0.296875 " clip-rule="nonzero"/></clipPath><clipPath id="23c6a33333"><path d="M 0.730469 88.203125 C 0.730469 39.671875 13.386719 0.328125 29 0.328125 C 44.609375 0.328125 57.265625 39.671875 57.265625 88.203125 C 57.265625 136.734375 44.609375 176.078125 29 176.078125 C 13.386719 176.078125 0.730469 136.734375 0.730469 88.203125 Z M 0.730469 88.203125 " clip-rule="nonzero"/></clipPath><clipPath id="aa039d3762"><rect x="0" width="58" y="0" height="177"/></clipPath><clipPath id="ecabefaeb4"><rect x="0" width="58" y="0" height="177"/></clipPath><mask id="cb47048e5f"><g filter="url(#4eef89c4c0)"><rect x="-150" width="1800" fill="#000000" y="-149.999993" height="1799.99992" fill-opacity="0.5"/></g></mask><clipPath id="79d11f4952"><path d="M 16 17 L 156 17 L 156 139 L 16 139 Z M 16 17 " clip-rule="nonzero"/></clipPath><clipPath id="6ea74f2ba7"><path d="M 0.574219 112.972656 L 135.398438 0.179688 L 171.671875 43.539062 L 36.847656 156.335938 Z M 0.574219 112.972656 " clip-rule="nonzero"/></clipPath><clipPath id="0fd96a598e"><path d="M 67.972656 56.585938 C 105.195312 25.445312 143.492188 9.90625 153.511719 21.882812 C 163.527344 33.855469 141.472656 68.804688 104.25 99.949219 C 67.023438 131.089844 28.730469 146.628906 18.710938 134.65625 C 8.695312 122.679688 30.75 87.730469 67.972656 56.585938 Z M 67.972656 56.585938 " clip-rule="nonzero"/></clipPath><clipPath id="a128cdfb88"><path d="M 0 0 L 140 0 L 140 122 L 0 122 Z M 0 0 " clip-rule="nonzero"/></clipPath><clipPath id="d9c658c794"><path d="M -15.425781 95.972656 L 119.398438 -16.820312 L 155.671875 26.539062 L 20.847656 139.335938 Z M -15.425781 95.972656 " clip-rule="nonzero"/></clipPath><clipPath id="8cc3389d7c"><path d="M 51.972656 39.585938 C 89.195312 8.445312 127.492188 -7.09375 137.511719 4.882812 C 147.527344 16.855469 125.472656 51.804688 88.25 82.949219 C 51.023438 114.089844 12.730469 129.628906 2.710938 117.65625 C -7.304688 105.679688 14.75 70.730469 51.972656 39.585938 Z M 51.972656 39.585938 " clip-rule="nonzero"/></clipPath><clipPath id="989b9217ee"><rect x="0" width="140" y="0" height="122"/></clipPath><clipPath id="362cd52db7"><rect x="0" width="172" y="0" height="157"/></clipPath><mask id="37d6603c81"><g filter="url(#4eef89c4c0)"><rect x="-150" width="1800" fill="#000000" y="-149.999993" height="1799.99992" fill-opacity="0.5"/></g></mask><clipPath id="8564302356"><path d="M 7 14 L 179 14 L 179 86 L 7 86 Z M 7 14 " clip-rule="nonzero"/></clipPath><clipPath id="e0d28c261f"><path d="M 15.234375 0.617188 L 185.253906 45.253906 L 170.898438 99.933594 L 0.878906 55.296875 Z M 15.234375 0.617188 " clip-rule="nonzero"/></clipPath><clipPath id="70a65851b8"><path d="M 100.230469 22.933594 C 147.171875 35.253906 182.011719 57.488281 178.046875 72.585938 C 174.082031 87.6875 132.816406 89.9375 85.875 77.613281 C 38.933594 65.289062 4.09375 43.058594 8.054688 27.957031 C 12.019531 12.859375 53.289062 10.609375 100.230469 22.933594 Z M 100.230469 22.933594 " clip-rule="nonzero"/></clipPath><clipPath id="633240edbb"><path d="M 0 0 L 172 0 L 172 72 L 0 72 Z M 0 0 " clip-rule="nonzero"/></clipPath><clipPath id="cd4be9bf31"><path d="M 8.234375 -13.382812 L 178.253906 31.253906 L 163.898438 85.933594 L -6.121094 41.296875 Z M 8.234375 -13.382812 " clip-rule="nonzero"/></clipPath><clipPath id="5de846e37a"><path d="M 93.230469 8.933594 C 140.171875 21.253906 175.011719 43.488281 171.046875 58.585938 C 167.082031 73.6875 125.816406 75.9375 78.875 63.613281 C 31.933594 51.289062 -2.90625 29.058594 1.054688 13.957031 C 5.019531 -1.140625 46.289062 -3.390625 93.230469 8.933594 Z M 93.230469 8.933594 " clip-rule="nonzero"/></clipPath><clipPath id="5f94863b40"><rect x="0" width="172" y="0" height="72"/></clipPath><clipPath id="e77c49fa83"><rect x="0" width="186" y="0" height="101"/></clipPath><mask id="6d58442749"><g filter="url(#4eef89c4c0)"><rect x="-150" width="1800" fill="#000000" y="-149.999993" height="1799.99992" fill-opacity="0.5"/></g></mask><clipPath id="9130a53e14"><path d="M 10 17 L 174 17 L 174 105 L 10 105 Z M 10 17 " clip-rule="nonzero"/></clipPath><clipPath id="ec3f877c74"><path d="M 184.113281 52.039062 L 22.996094 122.332031 L 0.390625 70.515625 L 161.503906 0.222656 Z M 184.113281 52.039062 " clip-rule="nonzero"/></clipPath><clipPath id="e9a729641b"><path d="M 103.570312 87.179688 C 59.085938 106.585938 17.964844 110.71875 11.722656 96.410156 C 5.480469 82.101562 36.480469 54.769531 80.960938 35.363281 C 125.445312 15.953125 166.566406 11.820312 172.808594 26.128906 C 179.050781 40.4375 148.054688 67.769531 103.570312 87.179688 Z M 103.570312 87.179688 " clip-rule="nonzero"/></clipPath><clipPath id="09f7d0b14d"><path d="M 0 0 L 164 0 L 164 88 L 0 88 Z M 0 0 " clip-rule="nonzero"/></clipPath><clipPath id="36e1e04849"><path d="M 174.113281 35.039062 L 12.996094 105.332031 L -9.609375 53.515625 L 151.503906 -16.777344 Z M 174.113281 35.039062 " clip-rule="nonzero"/></clipPath><clipPath id="ff590568fe"><path d="M 93.570312 70.179688 C 49.085938 89.585938 7.964844 93.71875 1.722656 79.410156 C -4.519531 65.101562 26.480469 37.769531 70.960938 18.363281 C 115.445312 -1.046875 156.566406 -5.179688 162.808594 9.128906 C 169.050781 23.4375 138.054688 50.769531 93.570312 70.179688 Z M 93.570312 70.179688 " clip-rule="nonzero"/></clipPath><clipPath id="10ab1c15c7"><rect x="0" width="164" y="0" height="88"/></clipPath><clipPath id="3f55780d8b"><rect x="0" width="185" y="0" height="123"/></clipPath><mask id="ee34e9c452"><g filter="url(#4eef89c4c0)"><rect x="-150" width="1800" fill="#000000" y="-149.999993" height="1799.99992" fill-opacity="0.5"/></g></mask><clipPath id="97bd52ee47"><path d="M 15 18 L 158 18 L 158 138 L 15 138 Z M 15 18 " clip-rule="nonzero"/></clipPath><clipPath id="590606bd13"><path d="M 137.113281 155.332031 L 0.199219 45.085938 L 35.65625 1.054688 L 172.570312 111.300781 Z M 137.113281 155.332031 " clip-rule="nonzero"/></clipPath><clipPath id="4fe75539b5"><path d="M 68.667969 100.21875 C 30.867188 69.78125 8.160156 35.25 17.953125 23.089844 C 27.742188 10.929688 66.324219 25.75 104.125 56.1875 C 141.925781 86.625 164.632812 121.15625 154.839844 133.316406 C 145.050781 145.476562 106.46875 130.65625 68.667969 100.21875 Z M 68.667969 100.21875 " clip-rule="nonzero"/></clipPath><clipPath id="9a8d3aacf9"><path d="M 0 0 L 143 0 L 143 120 L 0 120 Z M 0 0 " clip-rule="nonzero"/></clipPath><clipPath id="bc407bb040"><path d="M 122.113281 137.332031 L -14.800781 27.085938 L 20.65625 -16.945312 L 157.570312 93.300781 Z M 122.113281 137.332031 " clip-rule="nonzero"/></clipPath><clipPath id="e33f0ff73a"><path d="M 53.667969 82.21875 C 15.867188 51.78125 -6.839844 17.25 2.953125 5.089844 C 12.742188 -7.070312 51.324219 7.75 89.125 38.1875 C 126.925781 68.625 149.632812 103.15625 139.839844 115.316406 C 130.050781 127.476562 91.46875 112.65625 53.667969 82.21875 Z M 53.667969 82.21875 " clip-rule="nonzero"/></clipPath><clipPath id="165553a7f7"><rect x="0" width="143" y="0" height="120"/></clipPath><clipPath id="1fe6aa391a"><rect x="0" width="173" y="0" height="156"/></clipPath></defs><rect x="-150" width="1800" fill="#ffffff" y="-149.999993" height="1799.99992" fill-opacity="1"/><rect x="-150" width="1800" fill="#fdf4e3" y="-149.999993" height="1799.99992" fill-opacity="1"/><g clip-path="url(#766851b989)"><g clip-path="url(#bd46863947)"><g transform="matrix(1, 0, 0, 1, 194, 212)"><g clip-path="url(#903fcb6556)"><g clip-path="url(#eb0b012473)"><g clip-path="url(#2a5f9973e2)"><path fill="#c4b7a2" d="M -12.457031 -16.246094 L 1126.347656 -16.246094 L 1126.347656 1092.246094 L -12.457031 1092.246094 Z M -12.457031 -16.246094 " fill-opacity="1" fill-rule="nonzero"/></g></g></g></g></g></g><g clip-path="url(#84b9d25f49)"><g clip-path="url(#2878e9a036)"><g transform="matrix(1, 0, 0, 1, 249, 267)"><g clip-path="url(#ebe71f461b)"><g clip-path="url(#8cae89dc1d)"><g clip-path="url(#bc68bc54b9)"><path fill="#e8ddcc" d="M -11.839844 -17.019531 L 1015.546875 -17.019531 L 1015.546875 983.019531 L -11.839844 983.019531 Z M -11.839844 -17.019531 " fill-opacity="1" fill-rule="nonzero"/></g></g></g></g></g></g><g mask="url(#d17e5914d2)"><g transform="matrix(1, 0, 0, 1, 259, 259)"><g clip-path="url(#56d2a22443)"><g clip-path="url(#9f221e626d)"><g clip-path="url(#a0b3a19e60)"><path stroke-linecap="butt" transform="matrix(0.75, 0, 0, 0.75, 210.935314, 210.892781)" fill="none" stroke-linejoin="miter" d="M 373.466488 0.0023335 C 167.206053 0.0023335 -0.0022943 167.205473 -0.0022943 373.471116 C -0.0022943 579.73155 167.206053 746.939898 373.466488 746.939898 C 579.732131 746.939898 746.93527 579.73155 746.93527 373.471116 C 746.93527 167.205473 579.732131 0.0023335 373.466488 0.0023335 Z M 373.466488 0.0023335 " stroke="#143d29" stroke-width="140" stroke-opacity="1" stroke-miterlimit="4"/></g></g></g></g></g><g clip-path="url(#7be03489ac)"><g clip-path="url(#76d6c2305b)"><g transform="matrix(1, 0, 0, 1, 403, 957)"><g clip-path="url(#f8391ef190)"><g clip-path="url(#aeb445a76c)"><g clip-path="url(#9e398723ba)"><path fill="#143d29" d="M -15.667969 0.175781 L 706.945312 0.175781 L 706.945312 347.246094 L -15.667969 347.246094 Z M -15.667969 0.175781 " fill-opacity="1" fill-rule="nonzero"/></g></g></g></g></g></g><g mask="url(#0a9946a6bd)"><g transform="matrix(1, 0, 0, 1, 721, 281)"><g clip-path="url(#ecabefaeb4)"><g clip-path="url(#49a46571d8)"><g clip-path="url(#fa0ed39dc0)"><g transform="matrix(1, 0, 0, 1, 0.000000000000113687, 0.000000000000113687)"><g clip-path="url(#aa039d3762)"><g clip-path="url(#7d7edaddab)"><g clip-path="url(#23c6a33333)"><path fill="#143d29" d="M 0.730469 176.078125 L 0.730469 0.296875 L 57.265625 0.296875 L 57.265625 176.078125 Z M 0.730469 176.078125 " fill-opacity="1" fill-rule="nonzero"/></g></g></g></g></g></g></g></g></g><g mask="url(#cb47048e5f)"><g transform="matrix(1, 0, 0, 1, 985, 432)"><g clip-path="url(#362cd52db7)"><g clip-path="url(#79d11f4952)"><g clip-path="url(#6ea74f2ba7)"><g clip-path="url(#0fd96a598e)"><g transform="matrix(1, 0, 0, 1, 16, 17)"><g clip-path="url(#989b9217ee)"><g clip-path="url(#a128cdfb88)"><g clip-path="url(#d9c658c794)"><g clip-path="url(#8cc3389d7c)"><path fill="#143d29" d="M -15.425781 95.972656 L 119.398438 -16.820312 L 155.671875 26.539062 L 20.847656 139.335938 Z M -15.425781 95.972656 " fill-opacity="1" fill-rule="nonzero"/></g></g></g></g></g></g></g></g></g></g></g><g mask="url(#37d6603c81)"><g transform="matrix(1, 0, 0, 1, 1045, 811)"><g clip-path="url(#e77c49fa83)"><g clip-path="url(#8564302356)"><g clip-path="url(#e0d28c261f)"><g clip-path="url(#70a65851b8)"><g transform="matrix(1, 0, 0, 1, 7, 14)"><g clip-path="url(#5f94863b40)"><g clip-path="url(#633240edbb)"><g clip-path="url(#cd4be9bf31)"><g clip-path="url(#5de846e37a)"><path fill="#143d29" d="M 8.234375 -13.382812 L 178.253906 31.253906 L 163.898438 85.933594 L -6.121094 41.296875 Z M 8.234375 -13.382812 " fill-opacity="1" fill-rule="nonzero"/></g></g></g></g></g></g></g></g></g></g></g><g mask="url(#6d58442749)"><g transform="matrix(1, 0, 0, 1, 270, 800)"><g clip-path="url(#3f55780d8b)"><g clip-path="url(#9130a53e14)"><g clip-path="url(#ec3f877c74)"><g clip-path="url(#e9a729641b)"><g transform="matrix(1, 0, 0, 1, 10, 17)"><g clip-path="url(#10ab1c15c7)"><g clip-path="url(#09f7d0b14d)"><g clip-path="url(#36e1e04849)"><g clip-path="url(#ff590568fe)"><path fill="#143d29" d="M 174.113281 35.039062 L 12.996094 105.332031 L -9.609375 53.515625 L 151.503906 -16.777344 Z M 174.113281 35.039062 " fill-opacity="1" fill-rule="nonzero"/></g></g></g></g></g></g></g></g></g></g></g><g mask="url(#ee34e9c452)"><g transform="matrix(1, 0, 0, 1, 342, 433)"><g clip-path="url(#1fe6aa391a)"><g clip-path="url(#97bd52ee47)"><g clip-path="url(#590606bd13)"><g clip-path="url(#4fe75539b5)"><g transform="matrix(1, 0, 0, 1, 15, 18)"><g clip-path="url(#165553a7f7)"><g clip-path="url(#9a8d3aacf9)"><g clip-path="url(#bc407bb040)"><g clip-path="url(#e33f0ff73a)"><path fill="#143d29" d="M 122.113281 137.332031 L -14.800781 27.085938 L 20.65625 -16.945312 L 157.570312 93.300781 Z M 122.113281 137.332031 " fill-opacity="1" fill-rule="nonzero"/></g></g></g></g></g></g></g></g></g></g></g></svg>